<?xml version="1.0" encoding="UTF-8"?>
<svg xmlns="http://www.w3.org/2000/svg" version="1.1" width="300" height="300" viewBox="0 0 300 300"><rect x="0" y="0" width="300" height="300" fill="#fefefe"/><g transform="scale(7.317)"><g transform="translate(4,4)"><path fill-rule="evenodd" d="M8 0L8 1L9 1L9 2L8 2L8 5L9 5L9 4L11 4L11 5L10 5L10 10L8 10L8 9L9 9L9 8L8 8L8 9L7 9L7 8L6 8L6 9L7 9L7 10L5 10L5 9L4 9L4 8L0 8L0 10L1 10L1 11L0 11L0 12L1 12L1 13L0 13L0 19L3 19L3 20L0 20L0 22L1 22L1 21L2 21L2 22L3 22L3 23L1 23L1 24L0 24L0 25L1 25L1 24L2 24L2 25L3 25L3 24L5 24L5 23L7 23L7 24L6 24L6 25L7 25L7 24L8 24L8 26L10 26L10 25L12 25L12 24L10 24L10 25L9 25L9 24L8 24L8 23L9 23L9 22L8 22L8 21L7 21L7 20L6 20L6 19L7 19L7 18L6 18L6 17L7 17L7 16L8 16L8 15L9 15L9 14L8 14L8 13L11 13L11 16L12 16L12 14L13 14L13 15L14 15L14 16L13 16L13 19L14 19L14 21L15 21L15 20L16 20L16 23L18 23L18 24L17 24L17 26L16 26L16 25L15 25L15 23L13 23L13 22L12 22L12 21L11 21L11 20L12 20L12 19L11 19L11 17L10 17L10 16L9 16L9 17L8 17L8 18L9 18L9 19L10 19L10 20L9 20L9 21L10 21L10 22L11 22L11 23L13 23L13 25L14 25L14 26L12 26L12 27L9 27L9 28L11 28L11 30L12 30L12 31L10 31L10 32L9 32L9 30L10 30L10 29L8 29L8 33L13 33L13 32L12 32L12 31L14 31L14 30L15 30L15 31L16 31L16 32L17 32L17 33L18 33L18 31L19 31L19 29L17 29L17 30L18 30L18 31L16 31L16 29L15 29L15 27L14 27L14 26L16 26L16 28L17 28L17 26L18 26L18 28L21 28L21 30L22 30L22 32L21 32L21 31L20 31L20 32L19 32L19 33L23 33L23 29L25 29L25 30L24 30L24 32L25 32L25 33L26 33L26 32L27 32L27 33L28 33L28 32L30 32L30 33L31 33L31 32L30 32L30 29L31 29L31 31L32 31L32 32L33 32L33 31L32 31L32 29L33 29L33 27L31 27L31 26L30 26L30 24L29 24L29 23L28 23L28 24L26 24L26 23L27 23L27 22L28 22L28 21L26 21L26 20L29 20L29 21L30 21L30 22L31 22L31 24L32 24L32 25L33 25L33 24L32 24L32 23L33 23L33 21L31 21L31 20L30 20L30 18L31 18L31 19L32 19L32 20L33 20L33 19L32 19L32 18L33 18L33 16L31 16L31 14L32 14L32 13L30 13L30 14L28 14L28 15L27 15L27 14L26 14L26 13L25 13L25 11L24 11L24 9L23 9L23 12L22 12L22 14L23 14L23 13L24 13L24 15L23 15L23 16L22 16L22 15L20 15L20 13L19 13L19 16L18 16L18 17L19 17L19 16L20 16L20 21L18 21L18 18L17 18L17 15L18 15L18 12L17 12L17 10L16 10L16 13L15 13L15 12L14 12L14 11L15 11L15 9L13 9L13 6L14 6L14 8L17 8L17 9L18 9L18 10L20 10L20 9L21 9L21 10L22 10L22 8L23 8L23 6L22 6L22 8L20 8L20 7L21 7L21 5L22 5L22 4L24 4L24 5L25 5L25 3L23 3L23 2L25 2L25 1L24 1L24 0L21 0L21 2L22 2L22 4L21 4L21 5L20 5L20 4L19 4L19 5L18 5L18 3L20 3L20 2L19 2L19 1L20 1L20 0L17 0L17 1L16 1L16 2L18 2L18 3L17 3L17 5L18 5L18 7L17 7L17 6L16 6L16 7L15 7L15 5L16 5L16 4L15 4L15 3L14 3L14 2L15 2L15 0L14 0L14 1L13 1L13 0L12 0L12 1L11 1L11 0L10 0L10 1L9 1L9 0ZM22 1L22 2L23 2L23 1ZM11 2L11 4L12 4L12 3L13 3L13 2ZM13 4L13 5L12 5L12 6L11 6L11 8L12 8L12 6L13 6L13 5L14 5L14 4ZM8 6L8 7L9 7L9 6ZM19 6L19 7L20 7L20 6ZM24 6L24 8L25 8L25 10L26 10L26 11L27 11L27 13L29 13L29 12L28 12L28 11L31 11L31 12L32 12L32 11L33 11L33 8L32 8L32 9L31 9L31 8L28 8L28 9L26 9L26 8L25 8L25 6ZM1 9L1 10L4 10L4 12L7 12L7 11L5 11L5 10L4 10L4 9ZM11 9L11 10L12 10L12 9ZM28 9L28 10L27 10L27 11L28 11L28 10L31 10L31 11L32 11L32 10L31 10L31 9ZM13 10L13 11L11 11L11 13L12 13L12 12L13 12L13 11L14 11L14 10ZM8 11L8 12L9 12L9 11ZM19 11L19 12L21 12L21 11ZM2 12L2 13L1 13L1 14L2 14L2 13L3 13L3 14L4 14L4 13L3 13L3 12ZM6 13L6 14L5 14L5 15L2 15L2 16L1 16L1 17L2 17L2 16L4 16L4 17L6 17L6 16L7 16L7 15L6 15L6 14L7 14L7 13ZM13 13L13 14L14 14L14 13ZM16 13L16 14L15 14L15 15L17 15L17 13ZM5 15L5 16L6 16L6 15ZM24 15L24 16L23 16L23 17L25 17L25 18L22 18L22 19L21 19L21 20L22 20L22 21L20 21L20 22L19 22L19 23L20 23L20 24L19 24L19 25L20 25L20 24L21 24L21 25L22 25L22 29L23 29L23 28L24 28L24 27L23 27L23 25L22 25L22 24L23 24L23 23L20 23L20 22L23 22L23 21L24 21L24 22L25 22L25 23L26 23L26 22L25 22L25 20L26 20L26 15ZM28 15L28 16L30 16L30 15ZM14 16L14 18L15 18L15 17L16 17L16 16ZM9 17L9 18L10 18L10 17ZM27 17L27 18L28 18L28 17ZM31 17L31 18L32 18L32 17ZM3 18L3 19L4 19L4 21L3 21L3 22L4 22L4 21L5 21L5 22L7 22L7 21L5 21L5 19L6 19L6 18L5 18L5 19L4 19L4 18ZM16 18L16 20L17 20L17 18ZM22 19L22 20L23 20L23 19ZM25 25L25 28L28 28L28 25ZM26 26L26 27L27 27L27 26ZM29 26L29 29L28 29L28 31L27 31L27 32L28 32L28 31L29 31L29 29L30 29L30 26ZM13 27L13 28L14 28L14 27ZM12 29L12 30L13 30L13 29ZM26 29L26 30L27 30L27 29ZM25 31L25 32L26 32L26 31ZM0 0L0 7L7 7L7 0ZM1 1L1 6L6 6L6 1ZM2 2L2 5L5 5L5 2ZM26 0L26 7L33 7L33 0ZM27 1L27 6L32 6L32 1ZM28 2L28 5L31 5L31 2ZM0 26L0 33L7 33L7 26ZM1 27L1 32L6 32L6 27ZM2 28L2 31L5 31L5 28Z" fill="#000000"/></g></g></svg>
