<?xml version="1.0" encoding="UTF-8"?>
<svg xmlns="http://www.w3.org/2000/svg" version="1.1" width="300" height="300" viewBox="0 0 300 300"><rect x="0" y="0" width="300" height="300" fill="#fefefe"/><g transform="scale(7.317)"><g transform="translate(4,4)"><path fill-rule="evenodd" d="M8 0L8 1L9 1L9 2L8 2L8 5L9 5L9 4L11 4L11 5L10 5L10 10L9 10L9 14L8 14L8 10L6 10L6 9L7 9L7 8L6 8L6 9L4 9L4 8L0 8L0 9L1 9L1 10L2 10L2 11L7 11L7 12L6 12L6 13L7 13L7 14L6 14L6 15L5 15L5 12L3 12L3 13L4 13L4 14L3 14L3 15L2 15L2 12L1 12L1 14L0 14L0 17L1 17L1 21L0 21L0 22L1 22L1 21L2 21L2 23L1 23L1 24L0 24L0 25L1 25L1 24L2 24L2 25L7 25L7 24L8 24L8 26L11 26L11 25L9 25L9 24L12 24L12 27L10 27L10 28L9 28L9 29L8 29L8 33L9 33L9 30L10 30L10 28L11 28L11 30L12 30L12 31L11 31L11 32L12 32L12 33L13 33L13 31L14 31L14 32L15 32L15 31L16 31L16 32L17 32L17 33L18 33L18 32L19 32L19 33L23 33L23 29L25 29L25 30L24 30L24 32L25 32L25 33L26 33L26 32L27 32L27 33L28 33L28 32L30 32L30 33L31 33L31 32L30 32L30 29L31 29L31 31L32 31L32 32L33 32L33 31L32 31L32 29L33 29L33 27L31 27L31 26L30 26L30 24L29 24L29 23L28 23L28 24L26 24L26 23L27 23L27 22L28 22L28 21L26 21L26 20L29 20L29 21L30 21L30 22L31 22L31 24L32 24L32 25L33 25L33 24L32 24L32 23L33 23L33 21L31 21L31 20L30 20L30 18L31 18L31 19L32 19L32 20L33 20L33 19L32 19L32 18L33 18L33 16L31 16L31 14L32 14L32 13L30 13L30 14L28 14L28 15L27 15L27 14L26 14L26 13L25 13L25 11L24 11L24 9L23 9L23 12L22 12L22 14L23 14L23 13L24 13L24 15L23 15L23 16L22 16L22 15L21 15L21 14L20 14L20 13L19 13L19 12L17 12L17 10L16 10L16 12L15 12L15 14L16 14L16 15L18 15L18 14L19 14L19 15L20 15L20 18L21 18L21 19L22 19L22 20L19 20L19 18L17 18L17 16L16 16L16 17L15 17L15 15L14 15L14 11L15 11L15 10L13 10L13 6L14 6L14 7L15 7L15 8L14 8L14 9L15 9L15 8L16 8L16 7L17 7L17 9L18 9L18 10L20 10L20 12L21 12L21 10L22 10L22 8L23 8L23 6L22 6L22 8L21 8L21 6L20 6L20 5L22 5L22 4L24 4L24 5L25 5L25 3L23 3L23 2L25 2L25 1L24 1L24 0L21 0L21 1L20 1L20 0L17 0L17 1L16 1L16 2L18 2L18 3L17 3L17 5L18 5L18 7L17 7L17 6L16 6L16 7L15 7L15 5L16 5L16 4L15 4L15 5L13 5L13 4L14 4L14 3L15 3L15 0L12 0L12 1L11 1L11 0L10 0L10 1L9 1L9 0ZM13 1L13 2L11 2L11 4L12 4L12 3L13 3L13 2L14 2L14 1ZM19 1L19 4L20 4L20 1ZM22 1L22 2L21 2L21 4L22 4L22 2L23 2L23 1ZM12 5L12 6L11 6L11 8L12 8L12 6L13 6L13 5ZM8 6L8 7L9 7L9 6ZM19 6L19 7L20 7L20 6ZM24 6L24 8L25 8L25 10L26 10L26 11L27 11L27 13L29 13L29 12L28 12L28 11L31 11L31 12L32 12L32 11L33 11L33 8L32 8L32 9L31 9L31 8L28 8L28 9L26 9L26 8L25 8L25 6ZM8 8L8 9L9 9L9 8ZM3 9L3 10L4 10L4 9ZM11 9L11 10L12 10L12 9ZM20 9L20 10L21 10L21 9ZM28 9L28 10L27 10L27 11L28 11L28 10L31 10L31 11L32 11L32 10L31 10L31 9ZM11 11L11 13L10 13L10 14L11 14L11 13L12 13L12 12L13 12L13 11ZM16 13L16 14L17 14L17 13ZM12 14L12 16L11 16L11 18L10 18L10 19L9 19L9 18L8 18L8 17L10 17L10 15L6 15L6 16L7 16L7 17L6 17L6 18L8 18L8 21L6 21L6 20L7 20L7 19L6 19L6 20L5 20L5 16L4 16L4 17L3 17L3 18L4 18L4 21L3 21L3 22L4 22L4 23L5 23L5 21L6 21L6 22L7 22L7 23L6 23L6 24L7 24L7 23L8 23L8 21L9 21L9 22L10 22L10 23L11 23L11 21L12 21L12 23L13 23L13 22L15 22L15 23L14 23L14 25L13 25L13 26L14 26L14 27L12 27L12 28L15 28L15 29L16 29L16 31L18 31L18 30L17 30L17 29L19 29L19 31L20 31L20 32L22 32L22 30L21 30L21 27L20 27L20 28L18 28L18 26L17 26L17 24L18 24L18 23L16 23L16 22L17 22L17 18L16 18L16 19L15 19L15 18L13 18L13 16L14 16L14 15L13 15L13 14ZM24 15L24 16L23 16L23 17L25 17L25 18L22 18L22 19L23 19L23 20L22 20L22 21L20 21L20 22L19 22L19 23L20 23L20 22L23 22L23 21L24 21L24 22L25 22L25 23L26 23L26 22L25 22L25 20L26 20L26 15ZM28 15L28 16L30 16L30 15ZM1 16L1 17L2 17L2 16ZM18 16L18 17L19 17L19 16ZM27 17L27 18L28 18L28 17ZM31 17L31 18L32 18L32 17ZM10 19L10 21L11 21L11 20L13 20L13 19ZM14 19L14 21L16 21L16 20L15 20L15 19ZM18 20L18 21L19 21L19 20ZM2 23L2 24L3 24L3 23ZM21 23L21 24L19 24L19 25L20 25L20 26L21 26L21 25L22 25L22 29L23 29L23 28L24 28L24 27L23 27L23 25L22 25L22 24L23 24L23 23ZM15 25L15 26L16 26L16 27L15 27L15 28L17 28L17 26L16 26L16 25ZM25 25L25 28L28 28L28 25ZM26 26L26 27L27 27L27 26ZM29 26L29 29L28 29L28 31L27 31L27 32L28 32L28 31L29 31L29 29L30 29L30 26ZM12 29L12 30L13 30L13 29ZM26 29L26 30L27 30L27 29ZM25 31L25 32L26 32L26 31ZM0 0L0 7L7 7L7 0ZM1 1L1 6L6 6L6 1ZM2 2L2 5L5 5L5 2ZM26 0L26 7L33 7L33 0ZM27 1L27 6L32 6L32 1ZM28 2L28 5L31 5L31 2ZM0 26L0 33L7 33L7 26ZM1 27L1 32L6 32L6 27ZM2 28L2 31L5 31L5 28Z" fill="#000000"/></g></g></svg>
