<?xml version="1.0" encoding="UTF-8"?>
<svg xmlns="http://www.w3.org/2000/svg" version="1.1" width="300" height="300" viewBox="0 0 300 300"><rect x="0" y="0" width="300" height="300" fill="#fefefe"/><g transform="scale(7.317)"><g transform="translate(4,4)"><path fill-rule="evenodd" d="M10 0L10 2L11 2L11 0ZM12 0L12 1L13 1L13 0ZM14 0L14 2L15 2L15 3L17 3L17 4L19 4L19 5L20 5L20 7L19 7L19 6L18 6L18 8L17 8L17 9L16 9L16 8L15 8L15 6L16 6L16 7L17 7L17 6L16 6L16 5L15 5L15 4L14 4L14 3L13 3L13 2L12 2L12 4L14 4L14 8L13 8L13 9L12 9L12 7L13 7L13 5L11 5L11 6L10 6L10 4L11 4L11 3L8 3L8 4L9 4L9 5L8 5L8 7L9 7L9 8L6 8L6 9L5 9L5 8L0 8L0 9L1 9L1 10L0 10L0 11L1 11L1 10L3 10L3 9L4 9L4 11L2 11L2 13L4 13L4 14L5 14L5 20L6 20L6 21L5 21L5 22L3 22L3 20L4 20L4 19L3 19L3 18L1 18L1 17L4 17L4 16L1 16L1 17L0 17L0 18L1 18L1 19L0 19L0 25L1 25L1 21L2 21L2 23L4 23L4 24L5 24L5 22L6 22L6 23L7 23L7 24L6 24L6 25L8 25L8 27L10 27L10 26L15 26L15 29L14 29L14 28L13 28L13 29L11 29L11 30L10 30L10 32L11 32L11 33L12 33L12 32L13 32L13 33L14 33L14 32L13 32L13 29L14 29L14 31L15 31L15 33L16 33L16 31L19 31L19 30L20 30L20 29L21 29L21 28L22 28L22 27L24 27L24 31L23 31L23 30L22 30L22 31L20 31L20 32L22 32L22 33L23 33L23 32L24 32L24 33L25 33L25 32L24 32L24 31L27 31L27 32L28 32L28 33L29 33L29 31L30 31L30 32L31 32L31 33L32 33L32 32L31 32L31 31L32 31L32 30L31 30L31 29L32 29L32 28L33 28L33 27L32 27L32 26L33 26L33 24L32 24L32 26L31 26L31 25L30 25L30 24L31 24L31 23L32 23L32 22L33 22L33 21L32 21L32 20L31 20L31 19L32 19L32 18L33 18L33 17L32 17L32 16L31 16L31 15L32 15L32 14L33 14L33 13L31 13L31 15L30 15L30 13L29 13L29 10L28 10L28 8L27 8L27 9L26 9L26 8L24 8L24 7L25 7L25 5L24 5L24 4L25 4L25 2L24 2L24 3L22 3L22 2L21 2L21 1L24 1L24 0L21 0L21 1L20 1L20 0L17 0L17 1L15 1L15 0ZM8 1L8 2L9 2L9 1ZM17 1L17 3L19 3L19 4L21 4L21 5L23 5L23 7L24 7L24 5L23 5L23 4L22 4L22 3L21 3L21 2L20 2L20 1ZM9 6L9 7L10 7L10 6ZM11 6L11 7L12 7L12 6ZM21 6L21 7L20 7L20 8L19 8L19 9L17 9L17 10L18 10L18 11L15 11L15 10L16 10L16 9L15 9L15 8L14 8L14 9L15 9L15 10L12 10L12 9L11 9L11 8L10 8L10 9L8 9L8 10L7 10L7 9L6 9L6 10L7 10L7 11L6 11L6 12L5 12L5 11L4 11L4 13L5 13L5 14L7 14L7 15L6 15L6 16L9 16L9 17L10 17L10 16L9 16L9 15L8 15L8 14L9 14L9 12L11 12L11 13L10 13L10 14L13 14L13 15L12 15L12 16L14 16L14 17L13 17L13 20L12 20L12 17L11 17L11 19L10 19L10 18L9 18L9 19L10 19L10 20L11 20L11 21L13 21L13 22L14 22L14 23L12 23L12 22L11 22L11 23L10 23L10 24L9 24L9 22L10 22L10 21L9 21L9 22L7 22L7 21L6 21L6 22L7 22L7 23L8 23L8 25L9 25L9 26L10 26L10 24L11 24L11 25L13 25L13 24L14 24L14 25L15 25L15 26L17 26L17 27L16 27L16 29L15 29L15 30L16 30L16 29L17 29L17 30L18 30L18 29L20 29L20 26L21 26L21 27L22 27L22 26L24 26L24 25L22 25L22 24L21 24L21 23L22 23L22 22L23 22L23 23L24 23L24 24L27 24L27 22L25 22L25 21L27 21L27 20L28 20L28 19L26 19L26 18L25 18L25 17L28 17L28 18L29 18L29 17L30 17L30 19L29 19L29 20L30 20L30 21L28 21L28 24L30 24L30 23L29 23L29 22L30 22L30 21L31 21L31 20L30 20L30 19L31 19L31 16L30 16L30 15L29 15L29 13L28 13L28 16L26 16L26 14L25 14L25 13L27 13L27 12L28 12L28 11L27 11L27 10L25 10L25 9L24 9L24 8L23 8L23 9L22 9L22 8L21 8L21 7L22 7L22 6ZM20 8L20 9L19 9L19 10L20 10L20 9L21 9L21 12L22 12L22 13L19 13L19 12L20 12L20 11L18 11L18 12L17 12L17 13L16 13L16 12L15 12L15 13L14 13L14 12L13 12L13 11L12 11L12 13L13 13L13 14L15 14L15 15L16 15L16 16L15 16L15 17L14 17L14 19L15 19L15 20L16 20L16 21L17 21L17 22L15 22L15 21L14 21L14 20L13 20L13 21L14 21L14 22L15 22L15 24L17 24L17 25L19 25L19 26L20 26L20 25L21 25L21 24L17 24L17 22L20 22L20 21L21 21L21 20L22 20L22 21L23 21L23 22L24 22L24 21L25 21L25 19L22 19L22 18L21 18L21 17L19 17L19 16L17 16L17 13L19 13L19 14L18 14L18 15L19 15L19 14L20 14L20 16L22 16L22 17L23 17L23 18L24 18L24 17L25 17L25 16L24 16L24 15L23 15L23 14L24 14L24 13L25 13L25 12L26 12L26 11L25 11L25 10L24 10L24 9L23 9L23 10L24 10L24 11L22 11L22 9L21 9L21 8ZM29 8L29 9L30 9L30 8ZM31 8L31 10L33 10L33 9L32 9L32 8ZM10 9L10 11L11 11L11 9ZM24 11L24 12L25 12L25 11ZM30 11L30 12L31 12L31 11ZM6 12L6 13L8 13L8 12ZM15 13L15 14L16 14L16 13ZM0 14L0 15L1 15L1 14ZM22 15L22 16L23 16L23 15ZM28 16L28 17L29 17L29 16ZM6 17L6 18L7 18L7 17ZM15 17L15 18L16 18L16 20L19 20L19 21L20 21L20 20L19 20L19 19L20 19L20 18L19 18L19 17L18 17L18 18L17 18L17 17ZM18 18L18 19L19 19L19 18ZM1 19L1 20L3 20L3 19ZM6 19L6 20L8 20L8 19ZM23 20L23 21L24 21L24 20ZM11 23L11 24L12 24L12 23ZM2 24L2 25L3 25L3 24ZM25 25L25 28L28 28L28 25ZM29 25L29 28L30 28L30 29L31 29L31 28L30 28L30 27L31 27L31 26L30 26L30 25ZM26 26L26 27L27 27L27 26ZM18 27L18 28L17 28L17 29L18 29L18 28L19 28L19 27ZM8 28L8 33L9 33L9 28ZM25 29L25 30L28 30L28 31L29 31L29 30L28 30L28 29ZM11 30L11 32L12 32L12 30ZM30 30L30 31L31 31L31 30ZM17 32L17 33L18 33L18 32ZM0 0L0 7L7 7L7 0ZM1 1L1 6L6 6L6 1ZM2 2L2 5L5 5L5 2ZM26 0L26 7L33 7L33 0ZM27 1L27 6L32 6L32 1ZM28 2L28 5L31 5L31 2ZM0 26L0 33L7 33L7 26ZM1 27L1 32L6 32L6 27ZM2 28L2 31L5 31L5 28Z" fill="#000000"/></g></g></svg>
