<?xml version="1.0" encoding="UTF-8"?>
<svg xmlns="http://www.w3.org/2000/svg" version="1.1" width="300" height="300" viewBox="0 0 300 300"><rect x="0" y="0" width="300" height="300" fill="#fefefe"/><g transform="scale(7.317)"><g transform="translate(4,4)"><path fill-rule="evenodd" d="M8 0L8 1L9 1L9 2L8 2L8 5L9 5L9 4L11 4L11 5L10 5L10 10L9 10L9 8L8 8L8 9L7 9L7 8L6 8L6 9L7 9L7 10L4 10L4 8L0 8L0 10L2 10L2 9L3 9L3 10L4 10L4 11L2 11L2 12L1 12L1 11L0 11L0 12L1 12L1 13L0 13L0 16L1 16L1 17L0 17L0 19L2 19L2 21L1 21L1 20L0 20L0 22L2 22L2 21L3 21L3 22L4 22L4 21L5 21L5 20L6 20L6 21L7 21L7 22L5 22L5 23L1 23L1 24L0 24L0 25L1 25L1 24L2 24L2 25L3 25L3 24L5 24L5 25L7 25L7 24L8 24L8 26L9 26L9 28L10 28L10 29L8 29L8 33L11 33L11 30L12 30L12 32L13 32L13 30L12 30L12 29L14 29L14 30L15 30L15 31L14 31L14 33L15 33L15 32L16 32L16 33L20 33L20 32L18 32L18 31L17 31L17 32L16 32L16 29L15 29L15 28L17 28L17 27L15 27L15 26L16 26L16 25L15 25L15 26L14 26L14 27L15 27L15 28L13 28L13 27L12 27L12 28L11 28L11 24L10 24L10 23L9 23L9 22L11 22L11 23L12 23L12 26L13 26L13 25L14 25L14 23L13 23L13 22L12 22L12 21L11 21L11 20L13 20L13 19L14 19L14 16L15 16L15 15L14 15L14 16L13 16L13 19L11 19L11 18L10 18L10 17L11 17L11 16L12 16L12 14L13 14L13 13L14 13L14 12L15 12L15 14L16 14L16 16L17 16L17 15L18 15L18 12L21 12L21 10L22 10L22 8L23 8L23 6L22 6L22 8L21 8L21 5L22 5L22 4L24 4L24 5L25 5L25 3L23 3L23 2L25 2L25 1L24 1L24 0L21 0L21 2L19 2L19 1L20 1L20 0L16 0L16 2L18 2L18 3L17 3L17 5L18 5L18 3L20 3L20 4L19 4L19 6L18 6L18 7L17 7L17 6L16 6L16 7L15 7L15 6L14 6L14 5L13 5L13 4L14 4L14 3L15 3L15 2L13 2L13 0L12 0L12 1L11 1L11 0L10 0L10 1L9 1L9 0ZM22 1L22 2L21 2L21 4L22 4L22 2L23 2L23 1ZM11 2L11 4L12 4L12 3L13 3L13 2ZM15 4L15 5L16 5L16 4ZM12 5L12 6L11 6L11 8L12 8L12 6L13 6L13 11L11 11L11 13L10 13L10 14L11 14L11 13L12 13L12 12L13 12L13 11L14 11L14 10L15 10L15 11L16 11L16 8L17 8L17 7L16 7L16 8L15 8L15 9L14 9L14 6L13 6L13 5ZM8 6L8 7L9 7L9 6ZM19 6L19 7L20 7L20 6ZM24 6L24 8L25 8L25 10L26 10L26 11L27 11L27 13L29 13L29 12L28 12L28 11L31 11L31 12L32 12L32 11L33 11L33 8L32 8L32 9L31 9L31 8L28 8L28 9L26 9L26 8L25 8L25 6ZM20 8L20 9L21 9L21 8ZM11 9L11 10L12 10L12 9ZM17 9L17 12L16 12L16 13L17 13L17 12L18 12L18 11L20 11L20 10L18 10L18 9ZM23 9L23 12L22 12L22 14L23 14L23 13L24 13L24 15L23 15L23 16L22 16L22 15L21 15L21 14L20 14L20 13L19 13L19 15L21 15L21 18L20 18L20 20L19 20L19 21L18 21L18 19L17 19L17 20L16 20L16 17L15 17L15 20L14 20L14 21L15 21L15 20L16 20L16 23L18 23L18 24L17 24L17 26L18 26L18 28L19 28L19 29L18 29L18 30L19 30L19 29L20 29L20 28L19 28L19 27L21 27L21 30L22 30L22 32L21 32L21 33L22 33L22 32L23 32L23 29L25 29L25 30L24 30L24 32L25 32L25 33L26 33L26 32L27 32L27 33L28 33L28 32L30 32L30 33L31 33L31 32L30 32L30 29L31 29L31 31L32 31L32 32L33 32L33 31L32 31L32 29L33 29L33 27L31 27L31 26L30 26L30 24L29 24L29 23L28 23L28 24L26 24L26 23L27 23L27 22L28 22L28 21L26 21L26 20L29 20L29 21L30 21L30 22L31 22L31 24L32 24L32 25L33 25L33 24L32 24L32 23L33 23L33 21L31 21L31 20L30 20L30 18L31 18L31 19L32 19L32 20L33 20L33 19L32 19L32 18L33 18L33 16L31 16L31 14L32 14L32 13L30 13L30 14L28 14L28 15L27 15L27 14L26 14L26 13L25 13L25 11L24 11L24 9ZM28 9L28 10L27 10L27 11L28 11L28 10L31 10L31 11L32 11L32 10L31 10L31 9ZM8 10L8 11L5 11L5 12L4 12L4 13L3 13L3 14L4 14L4 15L5 15L5 17L4 17L4 18L3 18L3 19L4 19L4 20L3 20L3 21L4 21L4 20L5 20L5 19L6 19L6 20L7 20L7 21L8 21L8 22L9 22L9 20L8 20L8 18L9 18L9 19L10 19L10 20L11 20L11 19L10 19L10 18L9 18L9 16L11 16L11 15L9 15L9 14L7 14L7 13L5 13L5 12L9 12L9 10ZM4 13L4 14L5 14L5 15L7 15L7 16L6 16L6 17L5 17L5 18L6 18L6 19L7 19L7 18L6 18L6 17L7 17L7 16L8 16L8 15L7 15L7 14L5 14L5 13ZM24 15L24 16L23 16L23 17L25 17L25 18L22 18L22 19L21 19L21 20L22 20L22 21L20 21L20 22L19 22L19 25L20 25L20 22L23 22L23 21L24 21L24 22L25 22L25 23L26 23L26 22L25 22L25 20L26 20L26 15ZM28 15L28 16L30 16L30 15ZM18 16L18 17L19 17L19 16ZM27 17L27 18L28 18L28 17ZM31 17L31 18L32 18L32 17ZM22 19L22 20L23 20L23 19ZM5 23L5 24L7 24L7 23ZM21 23L21 25L22 25L22 29L23 29L23 28L24 28L24 27L23 27L23 25L22 25L22 24L23 24L23 23ZM9 25L9 26L10 26L10 25ZM25 25L25 28L28 28L28 25ZM26 26L26 27L27 27L27 26ZM29 26L29 29L28 29L28 31L27 31L27 32L28 32L28 31L29 31L29 29L30 29L30 26ZM10 29L10 30L9 30L9 32L10 32L10 30L11 30L11 29ZM26 29L26 30L27 30L27 29ZM25 31L25 32L26 32L26 31ZM0 0L0 7L7 7L7 0ZM1 1L1 6L6 6L6 1ZM2 2L2 5L5 5L5 2ZM26 0L26 7L33 7L33 0ZM27 1L27 6L32 6L32 1ZM28 2L28 5L31 5L31 2ZM0 26L0 33L7 33L7 26ZM1 27L1 32L6 32L6 27ZM2 28L2 31L5 31L5 28Z" fill="#000000"/></g></g></svg>
