<?xml version="1.0" encoding="UTF-8"?>
<svg xmlns="http://www.w3.org/2000/svg" version="1.1" width="300" height="300" viewBox="0 0 300 300"><rect x="0" y="0" width="300" height="300" fill="#fefefe"/><g transform="scale(7.317)"><g transform="translate(4,4)"><path fill-rule="evenodd" d="M8 0L8 1L9 1L9 2L10 2L10 3L11 3L11 1L14 1L14 2L12 2L12 4L11 4L11 5L10 5L10 4L9 4L9 5L10 5L10 8L9 8L9 6L8 6L8 8L9 8L9 9L7 9L7 8L6 8L6 9L5 9L5 8L3 8L3 9L5 9L5 11L4 11L4 12L5 12L5 11L7 11L7 12L6 12L6 13L7 13L7 14L6 14L6 15L5 15L5 14L4 14L4 13L3 13L3 10L2 10L2 8L0 8L0 9L1 9L1 10L0 10L0 11L2 11L2 14L4 14L4 15L2 15L2 16L1 16L1 15L0 15L0 17L2 17L2 18L0 18L0 25L3 25L3 24L4 24L4 25L8 25L8 26L9 26L9 28L8 28L8 30L9 30L9 31L8 31L8 33L9 33L9 32L10 32L10 31L11 31L11 32L12 32L12 33L13 33L13 32L14 32L14 33L16 33L16 32L17 32L17 33L20 33L20 29L19 29L19 27L20 27L20 28L21 28L21 27L20 27L20 26L19 26L19 27L18 27L18 29L19 29L19 30L17 30L17 28L16 28L16 27L17 27L17 26L16 26L16 25L17 25L17 24L18 24L18 25L21 25L21 26L22 26L22 25L21 25L21 24L20 24L20 23L21 23L21 22L22 22L22 23L24 23L24 21L25 21L25 22L26 22L26 23L28 23L28 24L24 24L24 26L23 26L23 27L22 27L22 28L23 28L23 29L21 29L21 30L23 30L23 31L22 31L22 32L24 32L24 33L26 33L26 32L27 32L27 31L28 31L28 32L29 32L29 30L28 30L28 29L29 29L29 24L31 24L31 25L30 25L30 26L32 26L32 24L31 24L31 23L33 23L33 22L32 22L32 21L30 21L30 20L33 20L33 15L32 15L32 16L31 16L31 15L30 15L30 12L31 12L31 13L33 13L33 12L31 12L31 11L30 11L30 10L29 10L29 9L28 9L28 10L26 10L26 9L27 9L27 8L26 8L26 9L25 9L25 8L24 8L24 7L25 7L25 5L23 5L23 6L22 6L22 8L24 8L24 9L22 9L22 10L20 10L20 7L21 7L21 6L20 6L20 7L19 7L19 5L20 5L20 4L22 4L22 3L23 3L23 4L25 4L25 2L24 2L24 3L23 3L23 2L22 2L22 0L20 0L20 1L19 1L19 0L18 0L18 1L19 1L19 3L16 3L16 2L17 2L17 0L16 0L16 2L15 2L15 1L14 1L14 0L11 0L11 1L9 1L9 0ZM14 2L14 3L15 3L15 2ZM19 3L19 4L18 4L18 5L19 5L19 4L20 4L20 3ZM12 4L12 5L11 5L11 7L12 7L12 9L10 9L10 10L7 10L7 9L6 9L6 10L7 10L7 11L8 11L8 12L9 12L9 11L10 11L10 10L12 10L12 11L13 11L13 13L11 13L11 12L10 12L10 14L8 14L8 16L7 16L7 15L6 15L6 16L7 16L7 17L6 17L6 18L4 18L4 17L5 17L5 15L4 15L4 17L3 17L3 16L2 16L2 17L3 17L3 18L4 18L4 19L3 19L3 20L4 20L4 19L6 19L6 20L5 20L5 21L4 21L4 22L3 22L3 23L2 23L2 21L1 21L1 24L3 24L3 23L4 23L4 24L5 24L5 23L6 23L6 24L10 24L10 27L11 27L11 28L14 28L14 29L9 29L9 30L12 30L12 31L14 31L14 30L15 30L15 28L14 28L14 27L15 27L15 25L16 25L16 24L17 24L17 23L15 23L15 18L14 18L14 17L13 17L13 18L14 18L14 20L12 20L12 19L11 19L11 17L12 17L12 16L14 16L14 15L12 15L12 16L10 16L10 17L8 17L8 16L9 16L9 15L11 15L11 14L13 14L13 13L15 13L15 12L14 12L14 11L15 11L15 8L18 8L18 6L17 6L17 4ZM12 5L12 7L13 7L13 8L14 8L14 7L15 7L15 5L14 5L14 7L13 7L13 5ZM16 6L16 7L17 7L17 6ZM23 6L23 7L24 7L24 6ZM32 8L32 9L31 9L31 10L32 10L32 11L33 11L33 10L32 10L32 9L33 9L33 8ZM12 9L12 10L13 10L13 11L14 11L14 10L13 10L13 9ZM16 9L16 10L17 10L17 11L16 11L16 14L17 14L17 17L18 17L18 19L16 19L16 20L18 20L18 19L19 19L19 17L20 17L20 18L21 18L21 17L22 17L22 15L24 15L24 16L23 16L23 18L24 18L24 19L25 19L25 17L26 17L26 16L27 16L27 18L26 18L26 19L27 19L27 18L28 18L28 19L29 19L29 20L28 20L28 21L27 21L27 20L26 20L26 22L28 22L28 23L30 23L30 21L29 21L29 20L30 20L30 19L32 19L32 18L31 18L31 16L30 16L30 15L29 15L29 16L30 16L30 17L29 17L29 18L28 18L28 15L25 15L25 14L29 14L29 11L28 11L28 13L24 13L24 12L25 12L25 11L26 11L26 12L27 12L27 11L26 11L26 10L25 10L25 9L24 9L24 10L25 10L25 11L23 11L23 10L22 10L22 11L20 11L20 10L19 10L19 9ZM18 10L18 11L17 11L17 12L18 12L18 13L20 13L20 14L19 14L19 16L18 16L18 17L19 17L19 16L21 16L21 15L22 15L22 14L24 14L24 13L22 13L22 14L21 14L21 13L20 13L20 12L19 12L19 10ZM0 12L0 13L1 13L1 12ZM20 14L20 15L21 15L21 14ZM15 15L15 17L16 17L16 15ZM24 16L24 17L25 17L25 16ZM6 18L6 19L10 19L10 18ZM1 19L1 20L2 20L2 19ZM21 19L21 21L24 21L24 20L22 20L22 19ZM6 20L6 21L5 21L5 22L4 22L4 23L5 23L5 22L6 22L6 23L8 23L8 22L9 22L9 21L7 21L7 20ZM11 20L11 21L10 21L10 23L12 23L12 24L11 24L11 26L12 26L12 27L13 27L13 26L14 26L14 25L15 25L15 23L14 23L14 25L12 25L12 24L13 24L13 21L12 21L12 20ZM19 20L19 21L20 21L20 20ZM6 21L6 22L7 22L7 21ZM16 21L16 22L17 22L17 21ZM28 21L28 22L29 22L29 21ZM18 22L18 24L19 24L19 23L20 23L20 22ZM25 25L25 28L28 28L28 25ZM26 26L26 27L27 27L27 26ZM23 27L23 28L24 28L24 27ZM30 27L30 28L31 28L31 29L30 29L30 30L31 30L31 29L33 29L33 28L32 28L32 27ZM25 29L25 31L24 31L24 32L25 32L25 31L27 31L27 29ZM32 30L32 31L30 31L30 32L33 32L33 30ZM15 31L15 32L16 32L16 31ZM17 31L17 32L19 32L19 31ZM0 0L0 7L7 7L7 0ZM1 1L1 6L6 6L6 1ZM2 2L2 5L5 5L5 2ZM26 0L26 7L33 7L33 0ZM27 1L27 6L32 6L32 1ZM28 2L28 5L31 5L31 2ZM0 26L0 33L7 33L7 26ZM1 27L1 32L6 32L6 27ZM2 28L2 31L5 31L5 28Z" fill="#000000"/></g></g></svg>
