<?xml version="1.0" encoding="UTF-8"?>
<svg xmlns="http://www.w3.org/2000/svg" version="1.1" width="300" height="300" viewBox="0 0 300 300"><rect x="0" y="0" width="300" height="300" fill="#fefefe"/><g transform="scale(7.317)"><g transform="translate(4,4)"><path fill-rule="evenodd" d="M10 0L10 2L11 2L11 0ZM12 0L12 1L13 1L13 0ZM16 0L16 1L14 1L14 3L13 3L13 2L12 2L12 4L14 4L14 5L15 5L15 6L14 6L14 8L13 8L13 9L12 9L12 7L13 7L13 5L11 5L11 6L10 6L10 4L11 4L11 3L8 3L8 4L9 4L9 5L8 5L8 7L9 7L9 8L6 8L6 9L5 9L5 8L0 8L0 9L2 9L2 11L3 11L3 10L4 10L4 9L5 9L5 11L4 11L4 14L2 14L2 12L1 12L1 14L0 14L0 15L1 15L1 14L2 14L2 15L4 15L4 16L1 16L1 19L0 19L0 25L1 25L1 21L2 21L2 22L4 22L4 24L2 24L2 25L8 25L8 27L9 27L9 28L8 28L8 33L9 33L9 31L10 31L10 32L12 32L12 31L11 31L11 30L12 30L12 29L19 29L19 30L18 30L18 32L17 32L17 33L18 33L18 32L22 32L22 33L23 33L23 32L24 32L24 33L25 33L25 32L24 32L24 31L27 31L27 32L28 32L28 33L29 33L29 31L30 31L30 32L31 32L31 33L32 33L32 32L31 32L31 31L32 31L32 30L31 30L31 29L32 29L32 28L33 28L33 27L32 27L32 26L33 26L33 24L32 24L32 26L31 26L31 25L30 25L30 24L31 24L31 23L32 23L32 22L33 22L33 21L32 21L32 20L31 20L31 19L32 19L32 18L33 18L33 17L32 17L32 16L31 16L31 15L32 15L32 14L33 14L33 13L31 13L31 15L30 15L30 13L29 13L29 10L28 10L28 8L27 8L27 9L26 9L26 8L24 8L24 7L25 7L25 5L24 5L24 4L25 4L25 2L24 2L24 3L22 3L22 2L20 2L20 3L22 3L22 4L23 4L23 5L21 5L21 4L19 4L19 3L17 3L17 1L20 1L20 0ZM21 0L21 1L24 1L24 0ZM8 1L8 2L9 2L9 1ZM14 3L14 4L15 4L15 5L17 5L17 8L18 8L18 6L19 6L19 7L20 7L20 8L19 8L19 9L18 9L18 10L17 10L17 9L13 9L13 10L12 10L12 9L11 9L11 8L10 8L10 9L9 9L9 11L8 11L8 9L6 9L6 10L7 10L7 11L5 11L5 14L7 14L7 15L6 15L6 16L5 16L5 18L8 18L8 19L6 19L6 20L4 20L4 19L3 19L3 20L4 20L4 21L5 21L5 24L7 24L7 23L8 23L8 25L9 25L9 26L10 26L10 28L9 28L9 29L10 29L10 30L11 30L11 29L12 29L12 28L18 28L18 27L20 27L20 28L19 28L19 29L20 29L20 30L19 30L19 31L22 31L22 30L23 30L23 31L24 31L24 27L22 27L22 26L24 26L24 25L22 25L22 24L21 24L21 23L22 23L22 22L23 22L23 23L24 23L24 24L27 24L27 22L25 22L25 21L27 21L27 20L28 20L28 19L26 19L26 18L25 18L25 17L28 17L28 18L29 18L29 17L30 17L30 19L29 19L29 20L30 20L30 21L28 21L28 24L30 24L30 23L29 23L29 22L30 22L30 21L31 21L31 20L30 20L30 19L31 19L31 16L30 16L30 15L29 15L29 13L28 13L28 16L26 16L26 14L25 14L25 13L27 13L27 12L28 12L28 11L27 11L27 10L25 10L25 9L24 9L24 8L23 8L23 9L22 9L22 8L21 8L21 7L22 7L22 6L21 6L21 5L19 5L19 4L17 4L17 3ZM23 5L23 7L24 7L24 5ZM9 6L9 7L10 7L10 6ZM11 6L11 7L12 7L12 6ZM15 6L15 7L16 7L16 6ZM20 6L20 7L21 7L21 6ZM20 8L20 9L19 9L19 10L18 10L18 12L17 12L17 10L15 10L15 11L14 11L14 12L13 12L13 11L12 11L12 13L14 13L14 14L11 14L11 15L10 15L10 14L9 14L9 13L11 13L11 12L8 12L8 11L7 11L7 12L6 12L6 13L7 13L7 14L8 14L8 15L7 15L7 16L6 16L6 17L8 17L8 18L9 18L9 19L8 19L8 21L7 21L7 20L6 20L6 21L7 21L7 22L6 22L6 23L7 23L7 22L10 22L10 23L11 23L11 24L12 24L12 25L11 25L11 26L12 26L12 27L11 27L11 28L12 28L12 27L13 27L13 26L15 26L15 27L17 27L17 26L15 26L15 25L14 25L14 24L17 24L17 25L19 25L19 26L20 26L20 27L21 27L21 28L20 28L20 29L21 29L21 28L22 28L22 27L21 27L21 25L19 25L19 24L17 24L17 22L20 22L20 23L21 23L21 21L19 21L19 20L22 20L22 21L23 21L23 22L24 22L24 21L25 21L25 19L22 19L22 18L21 18L21 19L18 19L18 20L17 20L17 21L16 21L16 20L15 20L15 19L16 19L16 18L15 18L15 17L18 17L18 18L20 18L20 17L21 17L21 16L22 16L22 17L23 17L23 18L24 18L24 17L25 17L25 16L24 16L24 15L23 15L23 14L24 14L24 13L25 13L25 12L26 12L26 11L25 11L25 10L24 10L24 9L23 9L23 10L24 10L24 11L22 11L22 9L21 9L21 8ZM29 8L29 9L30 9L30 8ZM31 8L31 10L33 10L33 9L32 9L32 8ZM10 9L10 11L11 11L11 9ZM20 9L20 10L19 10L19 12L18 12L18 13L15 13L15 12L14 12L14 13L15 13L15 14L14 14L14 15L12 15L12 16L14 16L14 17L13 17L13 18L12 18L12 17L10 17L10 15L9 15L9 16L8 16L8 17L10 17L10 19L9 19L9 20L10 20L10 22L11 22L11 23L12 23L12 24L14 24L14 23L15 23L15 22L16 22L16 21L13 21L13 20L14 20L14 17L15 17L15 16L18 16L18 17L19 17L19 16L21 16L21 13L22 13L22 12L21 12L21 9ZM24 11L24 12L25 12L25 11ZM30 11L30 12L31 12L31 11ZM7 12L7 13L8 13L8 12ZM19 12L19 13L18 13L18 14L17 14L17 15L18 15L18 16L19 16L19 15L18 15L18 14L20 14L20 13L21 13L21 12ZM15 14L15 15L16 15L16 14ZM22 15L22 16L23 16L23 15ZM28 16L28 17L29 17L29 16ZM2 17L2 18L4 18L4 17ZM1 19L1 20L2 20L2 19ZM12 19L12 20L11 20L11 22L12 22L12 23L13 23L13 21L12 21L12 20L13 20L13 19ZM23 20L23 21L24 21L24 20ZM12 25L12 26L13 26L13 25ZM25 25L25 28L28 28L28 25ZM29 25L29 28L30 28L30 29L31 29L31 28L30 28L30 27L31 27L31 26L30 26L30 25ZM26 26L26 27L27 27L27 26ZM25 29L25 30L28 30L28 31L29 31L29 30L28 30L28 29ZM14 30L14 31L16 31L16 30ZM30 30L30 31L31 31L31 30ZM13 32L13 33L14 33L14 32ZM15 32L15 33L16 33L16 32ZM0 0L0 7L7 7L7 0ZM1 1L1 6L6 6L6 1ZM2 2L2 5L5 5L5 2ZM26 0L26 7L33 7L33 0ZM27 1L27 6L32 6L32 1ZM28 2L28 5L31 5L31 2ZM0 26L0 33L7 33L7 26ZM1 27L1 32L6 32L6 27ZM2 28L2 31L5 31L5 28Z" fill="#000000"/></g></g></svg>
